HIERARCHY
ROOT Hips
{
	OFFSET 0.00000 0.00000 0.00000
	CHANNELS 6 Xposition Yposition Zposition Zrotation Yrotation Xrotation 
	JOINT LHipJoint
	{
		OFFSET 0 0 0
		CHANNELS 3 Zrotation Yrotation Xrotation
		JOINT LeftUpLeg
		{
			OFFSET 1.37590 -1.78394 0.89329
			CHANNELS 3 Zrotation Yrotation Xrotation
			JOINT LeftLeg
			{
				OFFSET 2.47928 -6.81178 0.00000
				CHANNELS 3 Zrotation Yrotation Xrotation
				JOINT LeftFoot
				{
					OFFSET 2.63345 -7.23535 0.00000
					CHANNELS 3 Zrotation Yrotation Xrotation
					JOINT LeftToeBase
					{
						OFFSET 0.23938 -0.65768 2.27012
						CHANNELS 3 Zrotation Yrotation Xrotation
						End Site
						{
							OFFSET 0.00000 -0.00000 1.18363
						}
					}
				}
			}
		}
	}
	JOINT RHipJoint
	{
		OFFSET 0 0 0
		CHANNELS 3 Zrotation Yrotation Xrotation
		JOINT RightUpLeg
		{
			OFFSET -1.33617 -1.78394 0.89329
			CHANNELS 3 Zrotation Yrotation Xrotation
			JOINT RightLeg
			{
				OFFSET -2.56922 -7.05888 0.00000
				CHANNELS 3 Zrotation Yrotation Xrotation
				JOINT RightFoot
				{
					OFFSET -2.56568 -7.04915 0.00000
					CHANNELS 3 Zrotation Yrotation Xrotation
					JOINT RightToeBase
					{
						OFFSET -0.27533 -0.75646 2.18105
						CHANNELS 3 Zrotation Yrotation Xrotation
						End Site
						{
							OFFSET -0.00000 -0.00000 1.15233
						}
					}
				}
			}
		}
	}
	JOINT LowerBack
	{
		OFFSET 0 0 0
		CHANNELS 3 Zrotation Yrotation Xrotation
		JOINT Spine
		{
			OFFSET 0.06190 2.15152 -0.00935
			CHANNELS 3 Zrotation Yrotation Xrotation
			JOINT Spine1
			{
				OFFSET 0.06334 2.15332 0.00872
				CHANNELS 3 Zrotation Yrotation Xrotation
				JOINT Neck
				{
					OFFSET 0 0 0
					CHANNELS 3 Zrotation Yrotation Xrotation
					JOINT Neck1
					{
						OFFSET -0.04202 1.66908 0.23524
						CHANNELS 3 Zrotation Yrotation Xrotation
						JOINT Head
						{
							OFFSET 0.07510 1.69357 -0.24440
							CHANNELS 3 Zrotation Yrotation Xrotation
							End Site
							{
								OFFSET 0.02556 1.71719 -0.11000
							}
						}
					}
				}
				JOINT LeftShoulder
				{
					OFFSET 0 0 0
					CHANNELS 3 Zrotation Yrotation Xrotation
					JOINT LeftArm
					{
						OFFSET 3.67168 1.26306 -0.41342
						CHANNELS 3 Zrotation Yrotation Xrotation
						JOINT LeftForeArm
						{
							OFFSET 4.68510 -0.00000 -0.00000
							CHANNELS 3 Zrotation Yrotation Xrotation
							JOINT LeftHand
							{
								OFFSET 3.39626 -0.00000 -0.00000
								CHANNELS 3 Zrotation Yrotation Xrotation
								JOINT LeftFingerBase
								{
									OFFSET 0 0 0
									CHANNELS 3 Zrotation Yrotation Xrotation
									JOINT LeftHandIndex1
									{
										OFFSET 0.48608 -0.00000 -0.00000
										CHANNELS 3 Zrotation Yrotation Xrotation
										End Site
										{
											OFFSET 0.39189 -0.00000 -0.00000
										}
									}
								}
								JOINT LThumb
								{
									OFFSET 0 0 0
									CHANNELS 3 Zrotation Yrotation Xrotation
									End Site
									{
										OFFSET 0.39787 -0.00000 0.39787
									}
								}
							}
						}
					}
				}
				JOINT RightShoulder
				{
					OFFSET 0 0 0
					CHANNELS 3 Zrotation Yrotation Xrotation
					JOINT RightArm
					{
						OFFSET -3.04136 1.42992 -0.76390
						CHANNELS 3 Zrotation Yrotation Xrotation
						JOINT RightForeArm
						{
							OFFSET -5.55576 -0.00000 -0.00000
							CHANNELS 3 Zrotation Yrotation Xrotation
							JOINT RightHand
							{
								OFFSET -3.32774 -0.00000 -0.00000
								CHANNELS 3 Zrotation Yrotation Xrotation
								JOINT RightFingerBase
								{
									OFFSET 0 0 0
									CHANNELS 3 Zrotation Yrotation Xrotation
									JOINT RightHandIndex1
									{
										OFFSET -0.50763 -0.00000 -0.00000
										CHANNELS 3 Zrotation Yrotation Xrotation
										End Site
										{
											OFFSET -0.40926 -0.00000 -0.00000
										}
									}
								}
								JOINT RThumb
								{
									OFFSET 0 0 0
									CHANNELS 3 Zrotation Yrotation Xrotation
									End Site
									{
										OFFSET -0.41551 -0.00000 0.41551
									}
								}
							}
						}
					}
				}
			}
		}
	}
}
MOTION
Frames: 10
Frame Time: .0083333
-0.1681 18.1036 5.1269 -110.9870 -81.0123 117.2350 0.0000 0.0000 0.0000 -4.5111 -4.4380 -27.7422 5.9311 14.3613 44.7047 0.3399 3.3823 -12.7844 0.7549 -5.5491 -15.4815 0.0000 0.0000 0.0000 32.4096 7.0424 -4.6231 -0.5538 -4.7670 13.2451 -0.0243 -8.1669 -12.1203 -0.5179 -4.6126 12.8068 7.1212 -1.0173 -1.2061 5.8251 -1.6011 -1.1515 2.0134 -0.9144 -0.5306 -4.8215 -4.8281 -10.6718 3.9268 -7.8413 27.4270 1.1890 -3.9249 10.9396 0.0000 -0.0000 0.0000 -89.2826 -20.0763 55.3695 39.5422 -47.7963 -18.0994 -0.0000 -0.0000 15.8403 10.7018 16.2284 3.0233 -7.1250 0.0000 -0.0000 -15.9672 45.8480 -0.3429 0.0000 -0.0000 0.0000 68.9640 20.0998 38.1205 -33.3419 43.5912 -13.6572 0.0000 0.0000 5.4804 -6.8122 -20.1210 2.3532 7.1250 -0.0000 -0.0000 21.0506 -49.0342 -2.1825
-0.2858 18.0983 5.1307 -111.8270 -80.8965 118.1010 0.0000 0.0000 0.0000 -4.2839 -4.6534 -27.9745 5.5040 13.9298 42.9570 0.3454 3.6467 -13.0509 0.7661 -5.5894 -15.5976 0.0000 0.0000 0.0000 32.4950 6.9804 -4.2364 -0.5582 -4.7856 13.2980 -0.0481 -8.0647 -12.4290 -0.4829 -4.4560 12.3633 7.1934 -0.9395 -1.1940 5.7803 -1.4940 -1.1685 1.9281 -0.8619 -0.5563 -4.7897 -4.8136 -10.7459 3.9193 -7.8180 27.4313 1.1821 -3.9093 10.9529 0.0000 -0.0000 0.0000 -88.7903 -20.3016 54.7536 40.8338 -48.5562 -19.0619 -0.0000 -0.0000 15.5819 9.6658 15.6660 2.6332 -7.1250 0.0000 -0.0000 -16.7078 45.1780 -0.0755 0.0000 -0.0000 0.0000 68.1492 20.4937 37.3659 -34.1920 44.2264 -14.2468 0.0000 0.0000 4.8988 -4.7914 -19.0734 1.5690 7.1250 -0.0000 -0.0000 22.4147 -47.7765 -1.6123
-0.4030 18.0922 5.1347 -112.6050 -80.7854 118.9080 0.0000 0.0000 0.0000 -4.0576 -4.8874 -28.1544 5.0679 13.4599 41.1154 0.3440 3.9214 -13.2270 0.7781 -5.6319 -15.7200 0.0000 0.0000 0.0000 32.5689 6.9153 -3.8748 -0.5652 -4.8150 13.3817 -0.0735 -7.9576 -12.7488 -0.4497 -4.3022 11.9285 7.2517 -0.8607 -1.1723 5.7371 -1.3843 -1.1855 1.8523 -0.8080 -0.5866 -4.7767 -4.8016 -10.8329 3.9332 -7.8009 27.4472 1.1847 -3.8957 10.9753 0.0000 -0.0000 0.0000 -88.3196 -20.5178 54.0350 42.1006 -49.2663 -20.0167 -0.0000 -0.0000 15.1408 8.3492 15.1585 2.1977 -7.1250 0.0000 -0.0000 -17.7069 44.5369 0.2092 0.0000 -0.0000 0.0000 67.3638 20.8934 36.3863 -34.9432 44.7715 -14.7733 0.0000 0.0000 4.1890 -2.7375 -18.1373 0.8528 7.1250 -0.0000 -0.0000 23.8309 -46.6442 -1.0241
-0.5201 18.0851 5.1386 -113.3020 -80.6821 119.6340 0.0000 0.0000 0.0000 -3.8327 -5.1400 -28.2816 4.6264 12.9503 39.1825 0.3339 4.2095 -13.2879 0.7898 -5.6732 -15.8390 0.0000 0.0000 0.0000 32.6320 6.8413 -3.5333 -0.5740 -4.8520 13.4869 -0.0997 -7.8528 -13.0763 -0.4175 -4.1476 11.4922 7.2928 -0.7833 -1.1489 5.6966 -1.2760 -1.2019 1.7887 -0.7548 -0.6164 -4.7658 -4.7946 -10.9186 3.9500 -7.7921 27.4672 1.1877 -3.8858 10.9998 -0.0000 -0.0000 0.0000 -87.8710 -20.7232 53.2264 43.3366 -49.9271 -20.9580 -0.0000 -0.0000 14.4391 6.7947 14.7580 1.7385 -7.1250 0.0000 -0.0000 -18.9379 43.9810 0.4949 -0.0000 -0.0000 0.0000 66.6152 21.2982 35.1989 -35.5818 45.2231 -15.2249 0.0000 0.0000 3.3372 -0.7780 -17.3484 0.2320 7.1250 -0.0000 -0.0000 25.2005 -45.6803 -0.4521
-0.6372 18.0768 5.1427 -113.9230 -80.5768 120.2970 0.0000 0.0000 0.0000 -3.5970 -5.4045 -28.3691 4.1833 12.4005 37.1637 0.3132 4.5151 -13.2110 0.8018 -5.7150 -15.9598 0.0000 0.0000 0.0000 32.6953 6.7711 -3.2164 -0.5846 -4.8956 13.6109 -0.1263 -7.7563 -13.4071 -0.3857 -3.9882 11.0433 7.3291 -0.7029 -1.1332 5.6583 -1.1646 -1.2203 1.7299 -0.7000 -0.6434 -4.7510 -4.7947 -10.9999 3.9638 -7.7943 27.4894 1.1875 -3.8810 11.0245 0.0000 -0.0000 0.0000 -87.4449 -20.9245 52.3530 44.5194 -50.5308 -21.8671 -0.0000 -0.0000 13.4373 5.1321 14.4755 1.2861 -7.1250 0.0000 -0.0000 -20.2874 43.5336 0.7679 0.0000 -0.0000 0.0000 65.9154 21.7076 33.8142 -36.0981 45.5805 -15.5925 0.0000 0.0000 2.3592 0.9710 -16.7604 -0.2800 7.1250 -0.0000 -0.0000 26.4506 -44.9396 0.0425
-0.7546 18.0676 5.1471 -114.4810 -80.4705 120.9050 0.0000 0.0000 0.0000 -3.3542 -5.6755 -28.4087 3.7413 11.8079 35.0557 0.2821 4.8356 -12.9887 0.8119 -5.7499 -16.0604 0.0000 0.0000 0.0000 32.7590 6.7009 -2.9145 -0.5961 -4.9426 13.7451 -0.1533 -7.6677 -13.7420 -0.3546 -3.8258 10.5872 7.3620 -0.6218 -1.1231 5.6231 -1.0529 -1.2398 1.6759 -0.6450 -0.6679 -4.7412 -4.7977 -11.0839 3.9801 -7.8015 27.5209 1.1883 -3.8787 11.0539 0.0000 -0.0000 0.0000 -87.0391 -21.1198 51.4158 45.6567 -51.0862 -22.7486 -0.0000 -0.0000 12.0770 3.4063 14.3140 0.8431 -7.1250 0.0000 -0.0000 -21.7178 43.1988 1.0170 0.0000 -0.0000 0.0000 65.2682 22.1209 32.2557 -36.4947 45.8504 -15.8764 0.0000 0.0000 1.2504 2.3193 -16.3865 -0.6546 7.1250 -0.0000 -0.0000 27.4337 -44.4468 0.4066
-0.8725 18.0574 5.1517 -114.9800 -80.3620 121.4610 0.0000 0.0000 0.0000 -3.1027 -5.9491 -28.4004 3.3052 11.1734 32.8669 0.2420 5.1656 -12.6303 0.8229 -5.7879 -16.1701 0.0000 0.0000 0.0000 32.8262 6.6371 -2.6222 -0.6084 -4.9927 13.8878 -0.1803 -7.5907 -14.0787 -0.3240 -3.6587 10.1183 7.3941 -0.5397 -1.1241 5.5902 -0.9415 -1.2579 1.6247 -0.5901 -0.6844 -4.7355 -4.8038 -11.1608 3.9996 -7.8135 27.5513 1.1905 -3.8789 11.0821 0.0000 0.0000 0.0000 -86.6460 -21.3202 50.4271 46.7430 -51.5943 -23.5969 -0.0000 -0.0000 10.3543 1.7219 14.2805 0.4249 -7.1250 0.0000 -0.0000 -23.1447 42.9903 1.2185 0.0000 0.0000 0.0000 64.6773 22.5444 30.5407 -36.7704 46.0357 -16.0745 0.0000 0.0000 0.0122 3.2165 -16.1826 -0.8973 7.1250 -0.0000 -0.0000 28.1003 -44.1618 0.6343
-0.9908 18.0463 5.1567 -115.4160 -80.2481 121.9620 0.0000 0.0000 0.0000 -2.8356 -6.2274 -28.3434 2.8784 10.4956 30.5971 0.1946 5.5074 -12.1494 0.8339 -5.8254 -16.2787 0.0000 0.0000 0.0000 32.9025 6.5838 -2.3369 -0.6213 -5.0444 14.0352 -0.2073 -7.5252 -14.4171 -0.2945 -3.4894 9.6444 7.4330 -0.4575 -1.1350 5.5592 -0.8311 -1.2774 1.5716 -0.5357 -0.6967 -4.7302 -4.8115 -11.2353 4.0151 -7.8272 27.5837 1.1911 -3.8803 11.1105 0.0000 -0.0000 0.0000 -86.2760 -21.5232 49.3692 47.7655 -52.0536 -24.4007 -0.0000 -0.0000 8.3392 0.1869 14.3550 0.0463 -7.1250 0.0000 -0.0000 -24.4739 42.8969 1.3586 0.0000 -0.0000 0.0000 64.1479 22.9809 28.6836 -36.9309 46.1427 -16.1902 0.0000 -0.0000 -1.3681 3.6603 -16.1745 -1.0209 7.1250 -0.0000 -0.0000 28.4693 -44.1033 0.6892
-1.1098 18.0344 5.1622 -115.8160 -80.1290 122.4360 0.0000 0.0000 0.0000 -2.5541 -6.5181 -28.2339 2.4669 9.7775 28.2591 0.1440 5.8539 -11.5890 0.8467 -5.8689 -16.4046 0.0000 0.0000 0.0000 32.9837 6.5364 -2.0560 -0.6346 -5.0968 14.1849 -0.2346 -7.4638 -14.7550 -0.2666 -3.3217 9.1756 7.4805 -0.3744 -1.1531 5.5278 -0.7206 -1.2985 1.5132 -0.4814 -0.7065 -4.7205 -4.8215 -11.3032 4.0227 -7.8429 27.6127 1.1880 -3.8833 11.1359 -0.0000 -0.0000 0.0000 -85.9307 -21.7259 48.2351 48.7224 -52.4670 -25.1574 -0.0000 -0.0000 6.1015 -1.1170 14.5326 -0.2803 -7.1250 0.0000 -0.0000 -25.6413 42.9197 1.4177 -0.0000 -0.0000 0.0000 63.6817 23.4389 26.7022 -36.9831 46.1773 -16.2278 0.0000 -0.0000 -2.9213 3.6413 -16.3686 -1.0274 7.1250 -0.0000 -0.0000 28.5405 -44.2769 0.5572
-1.2296 18.0216 5.1682 -116.1560 -80.0055 122.8560 0.0000 0.0000 0.0000 -2.2541 -6.8323 -28.0721 2.0775 9.0256 25.8754 0.0936 6.2129 -11.0105 0.8642 -5.9279 -16.5752 0.0000 0.0000 0.0000 33.0716 6.4889 -1.7759 -0.6477 -5.1483 14.3321 -0.2621 -7.4066 -15.0881 -0.2397 -3.1507 8.6986 7.5363 -0.2927 -1.1847 5.4981 -0.6137 -1.3192 1.4519 -0.4289 -0.7081 -4.7085 -4.8343 -11.3585 4.0243 -7.8613 27.6323 1.1825 -3.8883 11.1550 0.0000 0.0000 0.0000 -85.6133 -21.9323 47.0208 49.5991 -52.8325 -25.8544 -0.0000 -0.0000 3.7182 -2.1109 14.8143 -0.5400 -7.1250 0.0000 -0.0000 -26.5883 43.0666 1.3740 0.0000 0.0000 0.0000 63.2759 23.9266 24.5909 -36.9357 46.1459 -16.1937 0.0000 -0.0000 -4.6059 3.2603 -16.7500 -0.9405 7.1250 -0.0000 -0.0000 28.3927 -44.6584 0.2614
